# xmcd
#
# Track frame offsets: 
#        150
#        19363
#        45242
#        67688
#        88771
#        112856
#        135774
#        157359
#        177136
#        201333
#        221089
#        246436
#        267085
#
# Disc length: 3828 seconds
#
# Revision: 1
# Processed by: cddbd v1.5.2PL0 Copyright (c) Steve Scherf et al.
# Submitted via: ExactAudioCopy v0.99pb4
#
DISCID=b00ef20d
DTITLE=肵璨 隸眙 - 那個季節的歌 V
DYEAR=2006
DGENRE=Blues
TTITLE0=你看你看月亮的臉
TTITLE1=曖昧
TTITLE2=相思風雨中
TTITLE3=愛情多瑙河
TTITLE4=當真就好
TTITLE5=金燕子
TTITLE6=回來吧
TTITLE7=我是一只小小鳥
TTITLE8=戀人未滿
TTITLE9=最後一聲愛你
TTITLE10=認錯
TTITLE11=墮入情網
TTITLE12=難捨難分
EXTD=
EXTT0=
EXTT1=
EXTT2=
EXTT3=
EXTT4=
EXTT5=
EXTT6=
EXTT7=
EXTT8=
EXTT9=
EXTT10=
EXTT11=
EXTT12=
PLAYORDER=
